HIERARCHY
ROOT joint_Root
{
	OFFSET 0.0 0.0 0.0
	CHANNELS 6 Xposition Yposition Zposition Zrotation Xrotation Yrotation 
	JOINT Hips
	{
		OFFSET 4.5925 91.4895 -427.239
		CHANNELS 6 Xposition Yposition Zposition Zrotation Xrotation Yrotation 
		JOINT Spine
		{
			OFFSET 15.7357 0.0 0.0
			CHANNELS 6 Xposition Yposition Zposition Zrotation Xrotation Yrotation 
			JOINT Chest
			{
				OFFSET 8.98455 -0.406207 0.0
				CHANNELS 6 Xposition Yposition Zposition Zrotation Xrotation Yrotation 
				JOINT Neck
				{
					OFFSET 16.3773 0.0 0.0
					CHANNELS 6 Xposition Yposition Zposition Zrotation Xrotation Yrotation 
					JOINT Head
					{
						OFFSET 6.45672 0.0 0.0
						CHANNELS 6 Xposition Yposition Zposition Zrotation Xrotation Yrotation 
						End Site
						{
							OFFSET 0.0 0.0 0.0
						}
					}
				}
				JOINT Shoulder_L
				{
					OFFSET 12.9942 -0.242716 4.98039
					CHANNELS 6 Xposition Yposition Zposition Zrotation Xrotation Yrotation 
					JOINT UpperArm_L
					{
						OFFSET 5.34809 0.0 0.0
						CHANNELS 6 Xposition Yposition Zposition Zrotation Xrotation Yrotation 
						JOINT LowerArm_L
						{
							OFFSET 24.3286 1.87007e-05 0.0
							CHANNELS 6 Xposition Yposition Zposition Zrotation Xrotation Yrotation 
							JOINT Hand_L
							{
								OFFSET 22.2916 0.0 0.0
								CHANNELS 6 Xposition Yposition Zposition Zrotation Xrotation Yrotation 
								End Site
								{
									OFFSET 0.0 0.0 0.0
								}
							}
						}
					}
				}
				JOINT Shoulder_R
				{
					OFFSET 12.9945 -0.242716 -4.98039
					CHANNELS 6 Xposition Yposition Zposition Zrotation Xrotation Yrotation 
					JOINT UpperArm_R
					{
						OFFSET -5.34813 0.0 0.0
						CHANNELS 6 Xposition Yposition Zposition Zrotation Xrotation Yrotation 
						JOINT LowerArm_R
						{
							OFFSET -24.3289 0.000322201 0.0
							CHANNELS 6 Xposition Yposition Zposition Zrotation Xrotation Yrotation 
							JOINT Hand_R
							{
								OFFSET -22.2915 -0.000108084 0.0
								CHANNELS 6 Xposition Yposition Zposition Zrotation Xrotation Yrotation 
								End Site
								{
									OFFSET 0.0 0.0 0.0
								}
							}
						}
					}
				}
			}
		}
		JOINT UpperLeg_L
		{
			OFFSET -2.19248 -6.46944 0.0
			CHANNELS 6 Xposition Yposition Zposition Zrotation Xrotation Yrotation 
			JOINT LowerLeg_L
			{
				OFFSET 39.0811 0.0 -1.23785e-05
				CHANNELS 6 Xposition Yposition Zposition Zrotation Xrotation Yrotation 
				JOINT Foot_L
				{
					OFFSET 40.9854 0.0 -1.26872e-05
					CHANNELS 6 Xposition Yposition Zposition Zrotation Xrotation Yrotation 
					JOINT Toes_L
					{
						OFFSET 11.7543 0.0 0.0
						CHANNELS 6 Xposition Yposition Zposition Zrotation Xrotation Yrotation 
						End Site
						{
							OFFSET 0.0 0.0 0.0
						}
					}
				}
			}
		}
		JOINT UpperLeg_R
		{
			OFFSET -2.19251 6.46944 0.0
			CHANNELS 6 Xposition Yposition Zposition Zrotation Xrotation Yrotation 
			JOINT LowerLeg_R
			{
				OFFSET -39.0811 -0.00228153 -0.0401928
				CHANNELS 6 Xposition Yposition Zposition Zrotation Xrotation Yrotation 
				JOINT Foot_R
				{
					OFFSET -40.9854 0.0 0.0
					CHANNELS 6 Xposition Yposition Zposition Zrotation Xrotation Yrotation 
					JOINT Toes_R
					{
						OFFSET -11.7543 0.0 0.0
						CHANNELS 6 Xposition Yposition Zposition Zrotation Xrotation Yrotation 
						End Site
						{
							OFFSET 0.0 0.0 0.0
						}
					}
				}
			}
		}
	}
}
MOTION
Frames:	6
Frame Time:	0.0333333
0.000000 0.000000 0.000000 0.000000 0.000000 -0.000000 -2.037660 90.718900 -5.411600 88.344800 -1.571750 11.124900 15.735700 0.000005 -0.000001 88.003300 76.504300 -88.088700 8.984550 -0.406207 -0.000000 19.210100 -0.929431 -0.013992 16.377300 -0.000001 -0.000001 4.061230 -3.354330 2.232720 6.456720 -0.000001 -0.000000 -12.240100 -2.848240 1.658220 12.994200 -0.242716 4.980390 -91.069300 6.502720 -80.641000 5.348090 -0.000007 -0.000001 -61.199000 29.047700 -26.672800 24.328600 0.000019 0.000005 12.165900 24.345700 -27.607500 22.291600 -0.000001 0.000005 9.189150 5.231590 1.914320 12.994500 -0.242716 -4.980390 89.128600 9.704470 -84.844200 -5.348130 -0.000001 -0.000004 -58.150900 32.174800 -25.283300 -24.328900 0.000322 -0.000009 5.038900 8.255740 -31.557500 -22.291500 -0.000108 -0.000004 18.359100 5.388300 -2.560950 -2.192480 -6.469440 -0.000000 -173.155000 -12.522900 -4.729250 39.081100 -0.000007 -0.000012 -0.107567 0.163972 33.265600 40.985400 -0.000006 -0.000013 0.450957 7.224140 -67.155200 11.754300 -0.000000 0.000003 -0.000192 -0.001789 -16.645100 -2.192510 6.469440 -0.000001 176.536000 23.234700 177.465000 -39.081100 -0.002282 -0.040193 -0.148254 0.246637 31.569900 -40.985400 0.000008 0.000006 5.468010 15.371300 -68.044800 -11.754300 -0.000006 -0.000006 -0.002256 -0.031871 -17.869100
0.000000 0.000000 0.000000 0.000000 0.000000 -0.000000 -2.032790 90.716500 -5.444500 88.329500 -1.566040 11.142700 15.735700 0.000005 -0.000001 88.013600 76.493400 -88.102900 8.984550 -0.406207 -0.000000 19.232100 -0.925744 -0.022224 16.377300 -0.000001 -0.000001 4.131640 -3.360660 2.262390 6.456720 -0.000001 -0.000000 -12.294500 -2.830630 1.642060 12.994200 -0.242716 4.980390 -91.068700 6.474070 -80.605900 5.348090 -0.000007 -0.000001 -61.067100 28.691000 -26.673500 24.328600 0.000019 0.000005 12.621900 24.055700 -28.782200 22.291600 -0.000001 0.000005 9.280060 5.231490 1.917180 12.994500 -0.242716 -4.980390 89.119900 9.614640 -84.745100 -5.348130 -0.000001 -0.000004 -58.091600 31.873900 -25.387700 -24.328900 0.000322 -0.000009 5.154840 8.111010 -32.599600 -22.291500 -0.000108 -0.000004 18.489300 5.389750 -2.607010 -2.192480 -6.469440 -0.000000 -173.146000 -12.532800 -4.750580 39.081100 -0.000007 -0.000012 -0.104775 0.159568 33.289800 40.985400 -0.000006 -0.000013 0.466490 7.243880 -67.142400 11.754300 -0.000000 0.000003 -0.000202 -0.001865 -16.647900 -2.192510 6.469440 -0.000001 176.555000 23.244400 177.458000 -39.081100 -0.002282 -0.040193 -0.146402 0.243564 31.576000 -40.985400 0.000008 0.000006 5.468220 15.354000 -68.025400 -11.754300 -0.000006 -0.000006 -0.002349 -0.033009 -17.915400
0.000000 0.000000 0.000000 0.000000 0.000000 -0.000000 -2.023770 90.728200 -5.478400 88.315100 -1.495080 11.178400 15.735700 0.000005 -0.000001 87.993900 76.483300 -88.086800 8.984550 -0.406207 -0.000000 19.251800 -0.935909 -0.027675 16.377300 -0.000001 -0.000001 4.219800 -3.371520 2.301230 6.456720 -0.000001 -0.000000 -12.304800 -2.857010 1.642450 12.994200 -0.242716 4.980390 -91.070400 6.445200 -80.549600 5.348090 -0.000007 -0.000001 -61.047600 28.052300 -26.755300 24.328600 0.000019 0.000005 12.845400 23.370500 -29.892500 22.291600 -0.000001 0.000005 9.507360 5.233730 1.858730 12.994500 -0.242716 -4.980390 89.101600 9.562770 -84.607400 -5.348130 -0.000001 -0.000004 -57.981000 31.492300 -25.486300 -24.328900 0.000322 -0.000009 5.443670 8.183210 -33.807800 -22.291500 -0.000108 -0.000004 18.583600 5.391720 -2.670190 -2.192480 -6.469440 -0.000000 -173.141000 -12.482500 -4.730910 39.081100 -0.000007 -0.000012 -0.106927 0.163146 33.241300 40.985400 -0.000006 -0.000013 0.465086 7.237080 -67.084300 11.754300 -0.000000 0.000003 -0.000197 -0.001825 -16.646400 -2.192510 6.469440 -0.000001 176.529000 23.335100 177.519000 -39.081100 -0.002282 -0.040193 -0.145711 0.243086 31.508100 -40.985400 0.000008 0.000006 5.465440 15.407000 -67.974600 -11.754300 -0.000006 -0.000006 -0.002402 -0.033638 -17.940900
0.000000 0.000000 0.000000 0.000000 0.000000 -0.000000 -2.017640 90.724200 -5.519370 88.312300 -1.475690 11.207200 15.735700 0.000005 -0.000001 88.042400 76.470600 -88.142800 8.984550 -0.406207 -0.000000 19.278000 -0.915057 -0.045799 16.377300 -0.000001 -0.000001 4.298780 -3.373870 2.313760 6.456720 -0.000001 -0.000000 -12.324200 -2.872460 1.647800 12.994200 -0.242716 4.980390 -91.070200 6.405090 -80.494000 5.348090 -0.000007 -0.000001 -60.966300 27.277300 -26.969100 24.328600 0.000019 0.000005 13.213400 22.770400 -31.242800 22.291600 -0.000001 0.000005 9.384280 5.235740 1.806930 12.994500 -0.242716 -4.980390 89.089100 9.474640 -84.483100 -5.348130 -0.000001 -0.000004 -57.814400 31.064100 -25.637600 -24.328900 0.000322 -0.000009 5.790940 8.251530 -35.251700 -22.291500 -0.000108 -0.000004 18.757000 5.391560 -2.665170 -2.192480 -6.469440 -0.000000 -173.146000 -12.492900 -4.745240 39.081100 -0.000007 -0.000012 -0.105094 0.160190 33.267500 40.985400 -0.000006 -0.000013 0.490259 7.271590 -67.071900 11.754300 -0.000000 0.000003 -0.000196 -0.001823 -16.646400 -2.192510 6.469440 -0.000001 176.520000 23.368900 177.510000 -39.081100 -0.002282 -0.040193 -0.145713 0.242871 31.530900 -40.985400 0.000008 0.000006 5.468100 15.407900 -67.957200 -11.754300 -0.000006 -0.000006 -0.002448 -0.034191 -17.963500
0.000000 0.000000 0.000000 0.000000 0.000000 -0.000000 -2.011700 90.730000 -5.577450 88.319300 -1.472630 11.223900 15.735700 0.000005 -0.000001 88.048200 76.461600 -88.163300 8.984550 -0.406207 -0.000000 19.295800 -0.914448 -0.075452 16.377300 -0.000001 -0.000001 4.380850 -3.371360 2.351320 6.456720 -0.000001 -0.000000 -12.305300 -2.833760 1.605740 12.994200 -0.242716 4.980390 -91.078900 6.426510 -80.449400 5.348090 -0.000007 -0.000001 -60.733800 26.418800 -27.166600 24.328600 0.000019 0.000005 13.601000 21.830900 -33.048900 22.291600 -0.000001 0.000005 9.318920 5.228240 2.000830 12.994500 -0.242716 -4.980390 89.080500 9.425450 -84.402400 -5.348130 -0.000001 -0.000004 -57.626100 30.468100 -25.811400 -24.328900 0.000322 -0.000009 6.247150 8.392070 -36.876300 -22.291500 -0.000108 -0.000004 19.055300 5.391570 -2.665550 -2.192480 -6.469440 -0.000000 -173.164000 -12.497700 -4.759330 39.081100 -0.000007 -0.000012 -0.103249 0.157548 33.239000 40.985400 -0.000006 -0.000013 0.496377 7.270170 -67.014800 11.754300 -0.000000 0.000003 -0.000203 -0.001874 -16.648200 -2.192510 6.469440 -0.000001 176.515000 23.396000 177.495000 -39.081100 -0.002282 -0.040193 -0.144706 0.241423 31.510500 -40.985400 0.000008 0.000006 5.473480 15.428000 -67.906800 -11.754300 -0.000006 -0.000006 -0.002378 -0.033348 -17.929200
0.000000 0.000000 0.000000 0.000000 0.000000 -0.000000 -2.006040 90.729200 -5.645720 88.315500 -1.429450 11.258700 15.735700 0.000005 -0.000001 88.061100 76.439700 -88.177200 8.984550 -0.406207 -0.000000 19.339900 -0.909973 -0.077687 16.377300 -0.000001 -0.000001 4.405040 -3.344000 2.335420 6.456720 -0.000001 -0.000000 -12.207000 -2.829070 1.599960 12.994200 -0.242716 4.980390 -91.079900 6.431360 -80.447600 5.348090 -0.000007 -0.000001 -60.593100 25.346700 -27.445100 24.328600 0.000019 0.000005 13.687500 20.410800 -34.928900 22.291600 -0.000001 0.000005 9.360880 5.225220 2.078680 12.994500 -0.242716 -4.980390 89.069100 9.367030 -84.298600 -5.348130 -0.000001 -0.000004 -57.422900 29.668500 -26.034200 -24.328900 0.000322 -0.000009 6.784850 8.551850 -38.666600 -22.291500 -0.000108 -0.000004 19.339500 5.394520 -2.760120 -2.192480 -6.469440 -0.000000 -173.168000 -12.492400 -4.786660 39.081100 -0.000007 -0.000012 -0.103396 0.157714 33.248800 40.985400 -0.000006 -0.000013 0.517216 7.308100 -66.968500 11.754300 -0.000000 0.000003 -0.000198 -0.001838 -16.646900 -2.192510 6.469440 -0.000001 176.517000 23.436100 177.480000 -39.081100 -0.002282 -0.040193 -0.140934 0.235203 31.517800 -40.985400 0.000008 0.000006 5.480870 15.430400 -67.865400 -11.754300 -0.000006 -0.000006 -0.002434 -0.034022 -17.956600
